<svg width="24" height="20" viewBox="0 0 24 20" fill="none" xmlns="http://www.w3.org/2000/svg">
<path d="M19.6154 1H4.38462C2.51534 1 1 2.61177 1 4.6V15.4C1 17.3882 2.51534 19 4.38462 19H19.6154C21.4847 19 23 17.3882 23 15.4V4.6C23 2.61177 21.4847 1 19.6154 1Z" fill="white" stroke="#040C13" stroke-width="1.5" stroke-linecap="round" stroke-linejoin="round"/>
<path d="M9.00031 14.2743V6.72192C8.99651 6.59442 9.02797 6.4683 9.09129 6.35716C9.15462 6.24601 9.24741 6.15404 9.35968 6.09115C9.47196 6.02826 9.59946 5.99684 9.72846 6.00025C9.85746 6.00367 9.98307 6.0418 10.0918 6.11054L16.6406 9.88671C16.75 9.95017 16.8407 10.0408 16.9038 10.1496C16.9668 10.2585 17 10.3817 17 10.5071C17 10.6325 16.9668 10.7557 16.9038 10.8645C16.8407 10.9734 16.75 11.064 16.6406 11.1275L10.0918 14.9036C9.98068 14.967 9.8546 15.0003 9.72631 15C9.59803 14.9997 9.47209 14.9659 9.36128 14.902C9.25047 14.8381 9.15872 14.7464 9.09533 14.6362C9.03193 14.5259 8.99915 14.4011 9.00031 14.2743Z" fill="#DE4326"/>
</svg>
