<?xml version="1.0" encoding="iso-8859-1"?>
<!-- Uploaded to: SVG Repo, www.svgrepo.com, Generator: SVG Repo Mixer Tools -->
<svg height="800px" width="800px" version="1.1" id="Layer_1" xmlns="http://www.w3.org/2000/svg" xmlns:xlink="http://www.w3.org/1999/xlink" 
	 viewBox="0 0 512.002 512.002" xml:space="preserve">
<path style="fill:#2D527C;" d="M256,512c-35.567,0-64.503-28.936-64.503-64.502v-4.397c-7.56-2.609-14.969-5.681-22.175-9.2
	l-3.121,3.12c-12.142,12.144-28.339,18.833-45.609,18.833s-33.467-6.689-45.612-18.833c-25.147-25.15-25.147-66.071,0-91.222
	l3.12-3.118c-3.516-7.205-6.592-14.614-9.199-22.175h-4.397C28.936,320.505,0,291.568,0,256.001s28.937-64.503,64.503-64.503h4.395
	c2.609-7.561,5.681-14.969,9.2-22.175l-3.12-3.12c-25.147-25.15-25.147-66.071,0-91.221c12.145-12.145,28.342-18.834,45.612-18.834
	s33.467,6.689,45.61,18.834l3.12,3.118c7.206-3.518,14.615-6.592,22.175-9.2v-4.395c0-35.567,28.937-64.503,64.503-64.503
	s64.503,28.937,64.503,64.503V68.9c7.56,2.609,14.969,5.683,22.175,9.2l3.12-3.12c12.144-12.144,28.341-18.833,45.61-18.833
	s33.467,6.689,45.612,18.833c25.147,25.15,25.147,66.071,0,91.222c-5.751,5.751-15.078,5.751-20.833,0
	c-5.752-5.752-5.752-15.078,0-20.831c13.662-13.664,13.662-35.896,0-49.56c-6.58-6.581-15.38-10.205-24.779-10.205
	s-18.198,3.624-24.778,10.205l-10.774,10.774c-4.667,4.667-11.867,5.661-17.622,2.43c-11.537-6.471-23.802-11.559-36.456-15.125
	c-6.35-1.79-10.735-7.58-10.735-14.178V64.506c0-19.323-15.72-35.043-35.043-35.043c-19.323,0-35.043,15.72-35.043,35.043v15.212
	c0,6.598-4.387,12.388-10.735,14.178c-12.653,3.566-24.919,8.654-36.456,15.125c-5.757,3.229-12.955,2.235-17.622-2.43
	l-10.774-10.774c-6.58-6.581-15.378-10.205-24.778-10.205s-18.199,3.624-24.779,10.205c-13.662,13.662-13.662,35.894,0,49.56
	l10.774,10.772c4.667,4.667,5.659,11.867,2.43,17.622c-6.471,11.535-11.559,23.801-15.125,36.456
	c-1.788,6.35-7.58,10.735-14.178,10.735H64.503c-19.323,0-35.043,15.72-35.043,35.043c0,19.323,15.72,35.043,35.043,35.043h15.212
	c6.596,0,12.388,4.385,14.178,10.734c3.569,12.659,8.657,24.925,15.125,36.457c3.227,5.755,2.235,12.957-2.432,17.622
	l-10.774,10.772c-13.661,13.662-13.661,35.894,0.001,49.558c6.58,6.581,15.38,10.205,24.779,10.205s18.198-3.624,24.778-10.205
	l10.775-10.772c4.665-4.667,11.867-5.658,17.619-2.432c11.54,6.471,23.805,11.559,36.457,15.125
	c6.35,1.79,10.735,7.58,10.735,14.178v15.213c0,19.322,15.72,35.042,35.043,35.042s35.043-15.72,35.043-35.042v-15.213
	c0-6.598,4.387-12.388,10.735-14.178c12.652-3.566,24.918-8.654,36.457-15.125c5.751-3.226,12.952-2.235,17.619,2.432l10.774,10.772
	c6.581,6.581,15.38,10.205,24.779,10.205s18.199-3.624,24.779-10.205c13.662-13.662,13.662-35.895,0-49.56l-10.772-10.772
	c-4.667-4.665-5.661-11.867-2.432-17.622c6.468-11.532,11.556-23.798,15.125-36.457c1.79-6.35,7.582-10.734,14.178-10.734h15.212
	c19.323,0,35.043-15.72,35.043-35.043c0-9.635-4.086-18.97-11.21-25.61c-5.952-5.547-6.281-14.867-0.734-20.818
	c5.547-5.951,14.87-6.278,20.818-0.734c13.083,12.192,20.587,29.381,20.587,47.162c0,35.567-28.937,64.503-64.503,64.503h-4.397
	c-2.609,7.561-5.683,14.97-9.199,22.175l3.118,3.118c25.149,25.15,25.149,66.071,0.001,91.221
	c-12.145,12.145-28.342,18.834-45.612,18.834s-33.467-6.689-45.611-18.834l-3.12-3.118c-7.206,3.519-14.615,6.593-22.175,9.2v4.397
	C320.503,483.066,291.566,512,256,512z"/>
<circle style="fill:#CEE8FA;" cx="255.996" cy="255.997" r="117.576"/>
<path style="fill:#2D527C;" d="M256,388.312c-72.956,0-132.309-59.354-132.309-132.309S183.044,123.692,256,123.692
	s132.309,59.355,132.309,132.311S328.956,388.312,256,388.312z M256,153.151c-56.711,0-102.849,46.138-102.849,102.85
	c0,56.711,46.138,102.849,102.849,102.849s102.849-46.138,102.849-102.849C358.849,199.289,312.711,153.151,256,153.151z"/>
</svg>