<svg width="439" height="140" viewBox="0 0 439 140" fill="none" xmlns="http://www.w3.org/2000/svg">
<g clip-path="url(#clip0_1467_96862)">
<path d="M172.308 90.4591C168.419 88.3489 165.364 85.3644 163.133 81.5257C160.903 77.6771 159.787 73.3259 159.787 68.4623C159.787 63.5987 160.903 59.2475 163.133 55.3989C165.364 51.5602 168.429 48.5757 172.308 46.4655C176.197 44.3552 180.518 43.29 185.281 43.29C190.044 43.29 193.732 44.2045 196.938 46.0233C200.143 47.8421 202.766 50.3343 204.806 53.4896L197.52 57.2076C196.304 55.1175 194.596 53.4192 192.385 52.1028C190.175 50.7965 187.803 50.1333 185.281 50.1333C182.126 50.1333 179.272 50.9171 176.719 52.4947C174.167 54.0724 172.167 56.243 170.71 59.0365C169.253 61.82 168.52 64.9653 168.52 68.4623C168.52 71.9593 169.253 75.1046 170.71 77.8881C172.167 80.6716 174.167 82.8522 176.719 84.4299C179.272 86.0075 182.126 86.7813 185.281 86.7813C187.853 86.7813 190.235 86.1281 192.416 84.8117C194.596 83.5054 196.304 81.7971 197.51 79.7069L204.796 83.425C200.133 90.228 193.621 93.6245 185.271 93.6245C180.508 93.6245 176.187 92.5694 172.298 90.4491L172.308 90.4591Z" fill="white"/>
<path d="M237.073 70.1001C237.073 67.4773 236.45 65.6082 235.214 64.4928C233.978 63.3774 232.219 62.8247 229.928 62.8247C228.129 62.8247 226.431 63.297 224.823 64.2416C223.215 65.1862 221.909 66.3217 220.884 67.6582V92.6998H213.237V44.0938H220.884V62.3022C222.2 60.7446 223.959 59.4081 226.17 58.2927C228.38 57.1773 230.772 56.6146 233.344 56.6146C237.083 56.6146 239.916 57.5592 241.836 59.4584C243.755 61.3576 244.71 64.121 244.71 67.7687V92.6797H237.063V70.09L237.073 70.1001Z" fill="white"/>
<path d="M256.557 65.7895C258.084 62.9859 260.215 60.7651 262.928 59.1071C265.651 57.449 268.706 56.625 272.103 56.625C275.499 56.625 278.584 57.449 281.207 59.097C283.83 60.745 285.859 63.016 287.286 65.9101C288.713 68.8042 289.437 72.0901 289.437 75.778V77.5969H262.265C262.556 80.4105 263.692 82.7519 265.691 84.621C267.681 86.4901 270.284 87.4246 273.489 87.4246C275.288 87.4246 277.097 87.0829 278.916 86.4097C280.734 85.7263 282.252 84.7818 283.468 83.5659L286.965 88.5802C285.216 90.2081 283.106 91.4642 280.624 92.3284C278.152 93.1926 275.499 93.6247 272.685 93.6247C269.188 93.6247 266.043 92.861 263.25 91.3235C260.456 89.7861 258.255 87.6155 256.658 84.7918C255.06 81.9681 254.256 78.7324 254.256 75.0847C254.256 71.6781 255.02 68.573 256.547 65.7795L256.557 65.7895ZM265.048 65.4077C263.35 67.126 262.426 69.1358 262.275 71.4168H282.021C281.97 70.0301 281.579 68.6735 280.855 67.3571C280.132 66.0407 279.036 64.9454 277.579 64.1013C276.122 63.2572 274.303 62.8251 272.113 62.8251C269.098 62.8251 266.747 63.6893 265.048 65.4077Z" fill="white"/>
<path d="M298.993 65.6086C300.551 62.7849 302.711 60.5842 305.475 58.9965C308.238 57.4189 311.373 56.625 314.87 56.625C320.749 56.625 325.241 58.5343 328.346 62.3528L323.321 66.9753C321.382 64.2119 318.679 62.8251 315.232 62.8251C312.026 62.8251 309.454 63.9606 307.515 66.2417C305.575 68.5228 304.6 71.4671 304.6 75.1048C304.6 78.7424 305.575 81.7068 307.515 84.008C309.454 86.3092 312.037 87.4547 315.232 87.4547C318.428 87.4547 321.281 86.068 323.321 83.3046L328.346 87.927C325.241 91.7456 320.739 93.6549 314.87 93.6549C311.373 93.6549 308.238 92.861 305.475 91.2833C302.711 89.7057 300.541 87.505 298.993 84.6813C297.436 81.8576 296.662 78.6721 296.662 75.1148C296.662 71.5575 297.436 68.4524 298.993 65.6287V65.6086Z" fill="white"/>
<path d="M349.408 78.1894L344.524 83.2138V92.6797H336.877V44.0938H344.524V74.4713L360.04 57.4989H369.506L354.865 73.4564L369.797 92.6898H360.18L349.398 78.1894H349.408Z" fill="white"/>
<path d="M376.761 65.7895C378.288 62.9859 380.419 60.7651 383.132 59.1071C385.855 57.449 388.91 56.625 392.306 56.625C395.703 56.625 398.788 57.449 401.411 59.097C404.033 60.745 406.063 63.016 407.49 65.9101C408.917 68.8042 409.641 72.0901 409.641 75.778V77.5969H382.469C382.76 80.4105 383.896 82.7519 385.895 84.621C387.885 86.4901 390.488 87.4246 393.693 87.4246C395.492 87.4246 397.301 87.0829 399.119 86.4097C400.938 85.7263 402.456 84.7818 403.672 83.5659L407.169 88.5802C405.42 90.2081 403.31 91.4642 400.828 92.3284C398.356 93.1926 395.703 93.6247 392.889 93.6247C389.392 93.6247 386.247 92.861 383.453 91.3235C380.66 89.7861 378.459 87.6155 376.861 84.7918C375.264 81.9681 374.46 78.7324 374.46 75.0847C374.46 71.6781 375.223 68.573 376.751 65.7795L376.761 65.7895ZM385.252 65.4077C383.554 67.126 382.629 69.1358 382.479 71.4168H402.225C402.174 70.0301 401.782 68.6735 401.059 67.3571C400.325 66.0407 399.24 64.9454 397.783 64.1013C396.326 63.2572 394.507 62.8251 392.316 62.8251C389.302 62.8251 386.95 63.6893 385.252 65.4077Z" fill="white"/>
<path d="M419.056 57.499H426.704V62.6741C428.06 60.9256 429.758 59.4786 431.798 58.3431C433.838 57.1975 435.948 56.6348 438.139 56.6348V63.6991C437.456 63.5584 436.662 63.478 435.737 63.478C434.14 63.478 432.421 63.9603 430.602 64.925C428.784 65.8897 427.477 66.9951 426.704 68.2311V92.6899H419.056V57.499Z" fill="white"/>
<path d="M70.021 140C31.4235 140 0.0209961 108.597 0.0209961 70C0.0209961 31.4025 31.4235 0 70.021 0C108.618 0 140.021 31.4025 140.021 70C140.021 108.597 108.618 140 70.021 140ZM70.021 9.29515C36.5484 9.29515 9.31614 36.5274 9.31614 70C9.31614 103.473 36.5484 130.705 70.021 130.705C103.494 130.705 130.726 103.473 130.726 70C130.726 36.5274 103.494 9.29515 70.021 9.29515Z" fill="#DE4326"/>
<path d="M56.7466 60.9862V85.7766H48.9889V60.9862H41.2312V53.9722H64.7655V60.9862H56.7566H56.7466Z" fill="#DE4326"/>
<path d="M91.0531 85.7769V70.5027L86.5412 78.2604H81.5369L77.025 70.7439V86.0181H69.2673V54.2236H77.025L84.0391 68.2417L91.0531 54.2236H98.8108V86.0181H91.0531V85.7668V85.7769Z" fill="#DE4326"/>
</g>
<defs>
<clipPath id="clip0_1467_96862">
<rect width="438.128" height="140" fill="white" transform="translate(0.0209961)"/>
</clipPath>
</defs>
</svg>
