<svg xmlns="http://www.w3.org/2000/svg" xmlns:xlink="http://www.w3.org/1999/xlink" width="500" zoomAndPan="magnify" viewBox="0 0 375 374.999991" height="500" preserveAspectRatio="xMidYMid meet" version="1.0"><defs><g/><clipPath id="e6cb115fcf"><path d="M 27.960938 235 L 48 235 L 48 241.246094 L 27.960938 241.246094 Z M 27.960938 235 " clip-rule="nonzero"/></clipPath><clipPath id="97eade5791"><path d="M 33 206 L 48.398438 206 L 48.398438 230 L 33 230 Z M 33 206 " clip-rule="nonzero"/></clipPath><clipPath id="5c43ce380d"><path d="M 32 194.535156 L 48.398438 194.535156 L 48.398438 223 L 32 223 Z M 32 194.535156 " clip-rule="nonzero"/></clipPath><clipPath id="427528547b"><path d="M 39 218 L 48.398438 218 L 48.398438 241.246094 L 39 241.246094 Z M 39 218 " clip-rule="nonzero"/></clipPath><clipPath id="4623a7dd86"><path d="M 158.925781 139.648438 L 176 139.648438 L 176 169.527344 L 158.925781 169.527344 Z M 158.925781 139.648438 " clip-rule="nonzero"/></clipPath><clipPath id="d94357632c"><path d="M 160 139.648438 L 182 139.648438 L 182 164 L 160 164 Z M 160 139.648438 " clip-rule="nonzero"/></clipPath><clipPath id="30380bc6e1"><path d="M 168 139.648438 L 187 139.648438 L 187 158 L 168 158 Z M 168 139.648438 " clip-rule="nonzero"/></clipPath><clipPath id="0f78a7d089"><path d="M 176 139.648438 L 191.664062 139.648438 L 191.664062 151 L 176 151 Z M 176 139.648438 " clip-rule="nonzero"/></clipPath><clipPath id="72a932cf4c"><path d="M 158.925781 220.371094 L 176 220.371094 L 176 250.539062 L 158.925781 250.539062 Z M 158.925781 220.371094 " clip-rule="nonzero"/></clipPath><clipPath id="b20c730150"><path d="M 160 226 L 182 226 L 182 250.539062 L 160 250.539062 Z M 160 226 " clip-rule="nonzero"/></clipPath><clipPath id="d310059ec1"><path d="M 168 233 L 187 233 L 187 250.539062 L 168 250.539062 Z M 168 233 " clip-rule="nonzero"/></clipPath><clipPath id="7d483f8bc6"><path d="M 176 239 L 191.664062 239 L 191.664062 250.539062 L 176 250.539062 Z M 176 239 " clip-rule="nonzero"/></clipPath><clipPath id="1f4a811051"><path d="M 245 230 L 257 230 L 257 246 L 245 246 Z M 245 230 " clip-rule="nonzero"/></clipPath><clipPath id="0acda33257"><path d="M 241.445312 212.265625 L 260.703125 219.105469 L 251.257812 245.699219 L 232 238.859375 Z M 241.445312 212.265625 " clip-rule="nonzero"/></clipPath><clipPath id="8ee8c42306"><path d="M 241.445312 212.265625 L 260.703125 219.105469 L 251.257812 245.699219 L 232 238.859375 Z M 241.445312 212.265625 " clip-rule="nonzero"/></clipPath><clipPath id="5953e4e2f4"><path d="M 236 233 L 254 233 L 254 245 L 236 245 Z M 236 233 " clip-rule="nonzero"/></clipPath><clipPath id="7d580d8c26"><path d="M 241.445312 212.265625 L 260.703125 219.105469 L 251.257812 245.699219 L 232 238.859375 Z M 241.445312 212.265625 " clip-rule="nonzero"/></clipPath><clipPath id="d78b0668f5"><path d="M 241.445312 212.265625 L 260.703125 219.105469 L 251.257812 245.699219 L 232 238.859375 Z M 241.445312 212.265625 " clip-rule="nonzero"/></clipPath><clipPath id="0562c15e05"><path d="M 249 219 L 261 219 L 261 235 L 249 235 Z M 249 219 " clip-rule="nonzero"/></clipPath><clipPath id="d664eae94d"><path d="M 241.445312 212.265625 L 260.703125 219.105469 L 251.257812 245.699219 L 232 238.859375 Z M 241.445312 212.265625 " clip-rule="nonzero"/></clipPath><clipPath id="9ecae1a8e4"><path d="M 241.445312 212.265625 L 260.703125 219.105469 L 251.257812 245.699219 L 232 238.859375 Z M 241.445312 212.265625 " clip-rule="nonzero"/></clipPath><clipPath id="2102cc440b"><path d="M 232 234 L 247 234 L 247 243 L 232 243 Z M 232 234 " clip-rule="nonzero"/></clipPath><clipPath id="433723dee7"><path d="M 241.445312 212.265625 L 260.703125 219.105469 L 251.257812 245.699219 L 232 238.859375 Z M 241.445312 212.265625 " clip-rule="nonzero"/></clipPath><clipPath id="a6a8706c0a"><path d="M 241.445312 212.265625 L 260.703125 219.105469 L 251.257812 245.699219 L 232 238.859375 Z M 241.445312 212.265625 " clip-rule="nonzero"/></clipPath><clipPath id="a15e73c4df"><path d="M 291 230 L 304 230 L 304 246 L 291 246 Z M 291 230 " clip-rule="nonzero"/></clipPath><clipPath id="661d39d90c"><path d="M 287.496094 219.21875 L 306.722656 212.289062 L 316.292969 238.839844 L 297.066406 245.769531 Z M 287.496094 219.21875 " clip-rule="nonzero"/></clipPath><clipPath id="f5a076f325"><path d="M 306.652344 212.316406 L 287.425781 219.242188 L 296.992188 245.792969 L 316.21875 238.867188 Z M 306.652344 212.316406 " clip-rule="nonzero"/></clipPath><clipPath id="cc1169ab87"><path d="M 294 233 L 313 233 L 313 245 L 294 245 Z M 294 233 " clip-rule="nonzero"/></clipPath><clipPath id="efb1c11d2b"><path d="M 287.496094 219.21875 L 306.722656 212.289062 L 316.292969 238.839844 L 297.066406 245.769531 Z M 287.496094 219.21875 " clip-rule="nonzero"/></clipPath><clipPath id="5aab07f299"><path d="M 306.652344 212.316406 L 287.425781 219.242188 L 296.992188 245.792969 L 316.21875 238.867188 Z M 306.652344 212.316406 " clip-rule="nonzero"/></clipPath><clipPath id="356705fe7e"><path d="M 287 219 L 299 219 L 299 235 L 287 235 Z M 287 219 " clip-rule="nonzero"/></clipPath><clipPath id="f5a2a63779"><path d="M 287.496094 219.21875 L 306.722656 212.289062 L 316.292969 238.839844 L 297.066406 245.769531 Z M 287.496094 219.21875 " clip-rule="nonzero"/></clipPath><clipPath id="3aece2fba7"><path d="M 306.652344 212.316406 L 287.425781 219.242188 L 296.992188 245.792969 L 316.21875 238.867188 Z M 306.652344 212.316406 " clip-rule="nonzero"/></clipPath><clipPath id="f009f2fb35"><path d="M 301 235 L 317 235 L 317 243 L 301 243 Z M 301 235 " clip-rule="nonzero"/></clipPath><clipPath id="ac7ce5a1a8"><path d="M 287.496094 219.21875 L 306.722656 212.289062 L 316.292969 238.839844 L 297.066406 245.769531 Z M 287.496094 219.21875 " clip-rule="nonzero"/></clipPath><clipPath id="0d423af3ac"><path d="M 306.652344 212.316406 L 287.425781 219.242188 L 296.992188 245.792969 L 316.21875 238.867188 Z M 306.652344 212.316406 " clip-rule="nonzero"/></clipPath><clipPath id="c17d263f10"><path d="M 96.507812 194 L 106 194 L 106 204.679688 L 96.507812 204.679688 Z M 96.507812 194 " clip-rule="nonzero"/></clipPath><clipPath id="92ef15c6cc"><path d="M 97 187.164062 L 105 187.164062 L 105 195 L 97 195 Z M 97 187.164062 " clip-rule="nonzero"/></clipPath><clipPath id="6445b41657"><path d="M 104 188 L 110.132812 188 L 110.132812 194 L 104 194 Z M 104 188 " clip-rule="nonzero"/></clipPath><clipPath id="47f3aa360f"><path d="M 318.199219 218 L 337.660156 218 L 337.660156 239 L 318.199219 239 Z M 318.199219 218 " clip-rule="nonzero"/></clipPath><clipPath id="8bfed4e5ea"><path d="M 325 204.023438 L 337.660156 204.023438 L 337.660156 234 L 325 234 Z M 325 204.023438 " clip-rule="nonzero"/></clipPath><clipPath id="13255205b6"><path d="M 327 221 L 337.660156 221 L 337.660156 245.867188 L 327 245.867188 Z M 327 221 " clip-rule="nonzero"/></clipPath><clipPath id="50be8f40cc"><path d="M 332 231 L 337.660156 231 L 337.660156 245.867188 L 332 245.867188 Z M 332 231 " clip-rule="nonzero"/></clipPath><clipPath id="f660c83b4b"><path d="M 341.136719 135.074219 L 350.5 135.074219 L 350.5 147.726562 L 341.136719 147.726562 Z M 341.136719 135.074219 " clip-rule="nonzero"/></clipPath><clipPath id="c4c6df6211"><path d="M 352.070312 135.074219 L 364.46875 135.074219 L 364.46875 147.726562 L 352.070312 147.726562 Z M 352.070312 135.074219 " clip-rule="nonzero"/></clipPath><clipPath id="8f4e937da9"><path d="M 10 132.703125 L 25 132.703125 L 25 147.300781 L 10 147.300781 Z M 10 132.703125 " clip-rule="nonzero"/></clipPath><clipPath id="a56f0ea248"><path d="M 14 138 L 34.699219 138 L 34.699219 147.300781 L 14 147.300781 Z M 14 138 " clip-rule="nonzero"/></clipPath><clipPath id="d124e55194"><path d="M 5.507812 139 L 23 139 L 23 147.300781 L 5.507812 147.300781 Z M 5.507812 139 " clip-rule="nonzero"/></clipPath><clipPath id="aab86bdef1"><path d="M 5.507812 143 L 16 143 L 16 147.300781 L 5.507812 147.300781 Z M 5.507812 143 " clip-rule="nonzero"/></clipPath></defs><g fill="#ff3131" fill-opacity="1"><g transform="translate(4.156076, 241.580358)"><g><path d="M 23.4375 -72.441406 L 23.4375 -1.277344 C 23.4375 -0.710938 24.003906 0 25 0 L 43.324219 0 C 44.316406 0 45.027344 -0.710938 45.027344 -1.277344 L 45.027344 -72.441406 Z M 1.5625 -94.171875 L 66.757812 -94.171875 C 67.753906 -94.171875 68.320312 -94.742188 68.320312 -95.449219 L 68.320312 -112.355469 C 68.320312 -112.921875 67.753906 -113.632812 66.757812 -113.632812 L 1.5625 -113.632812 C 0.710938 -113.632812 0 -112.921875 0 -112.355469 L 0 -95.449219 C 0 -94.742188 0.710938 -94.171875 1.5625 -94.171875 Z M 1.5625 -94.171875 "/></g></g></g><g clip-path="url(#e6cb115fcf)"><path fill="#ffbd59" d="M 47.613281 235.417969 L 45.234375 241.242188 L 27.960938 241.242188 L 30.339844 235.417969 Z M 47.613281 235.417969 " fill-opacity="1" fill-rule="nonzero"/></g><g clip-path="url(#97eade5791)"><path fill="#ffbd59" d="M 48.398438 206.664062 L 46.425781 211.488281 L 40.964844 211.488281 L 36.617188 222.132812 L 33.433594 229.925781 L 46.835938 229.925781 L 48.398438 226.105469 Z M 48.398438 206.664062 " fill-opacity="1" fill-rule="nonzero"/></g><g clip-path="url(#5c43ce380d)"><path fill="#ff5757" d="M 48.398438 194.535156 L 48.398438 206.664062 L 46.425781 211.488281 L 42.078125 222.132812 L 32.039062 222.132812 L 43.3125 194.535156 Z M 48.398438 194.535156 " fill-opacity="1" fill-rule="nonzero"/></g><g clip-path="url(#427528547b)"><path fill="#ff914d" d="M 48.398438 241.242188 L 39.222656 241.242188 L 41.601562 235.417969 L 43.84375 229.925781 L 47.03125 222.132812 L 48.398438 218.785156 " fill-opacity="1" fill-rule="nonzero"/></g><g fill="#ff3131" fill-opacity="1"><g transform="translate(157.037939, 251.963009)"><g><path d="M 20.167969 -113.632812 L 1.5625 -113.632812 C 0.710938 -113.632812 0 -112.921875 0 -112.355469 L 0 -67.753906 L 21.730469 -67.753906 L 21.730469 -92.894531 C 46.445312 -94.171875 64.769531 -83.804688 64.769531 -56.816406 C 64.769531 -21.730469 35.511719 -20.3125 21.730469 -20.878906 L 21.730469 -45.878906 L 0 -45.878906 L 0 -1.277344 C 0 -0.710938 0.710938 0 1.5625 0 L 20.167969 0 C 48.4375 0 86.644531 -8.238281 86.644531 -56.816406 C 86.644531 -107.242188 47.867188 -113.632812 20.167969 -113.632812 Z M 20.167969 -113.632812 "/></g></g></g><g clip-path="url(#4623a7dd86)"><path fill="#ff5757" d="M 158.933594 169.816406 L 158.933594 139.648438 L 175.523438 139.648438 L 168.445312 157.015625 L 165.835938 163.414062 L 163.226562 169.816406 Z M 158.933594 169.816406 " fill-opacity="1" fill-rule="nonzero"/></g><g clip-path="url(#d94357632c)"><path fill="#ffbd59" d="M 160.328125 163.492188 L 170.019531 139.722656 L 170.050781 139.648438 L 175.554688 139.648438 L 175.523438 139.722656 L 181.03125 139.722656 L 176.558594 150.691406 L 173.949219 157.089844 L 171.339844 163.492188 Z M 160.328125 163.492188 " fill-opacity="1" fill-rule="nonzero"/></g><g clip-path="url(#30380bc6e1)"><path fill="#ff914d" d="M 168.441406 157.015625 L 175.523438 139.648438 L 186.535156 139.648438 L 182.0625 150.613281 L 179.453125 157.015625 Z M 168.441406 157.015625 " fill-opacity="1" fill-rule="nonzero"/></g><g clip-path="url(#0f78a7d089)"><path fill="#ffde59" d="M 176.523438 150.613281 L 180.996094 139.648438 L 192.007812 139.648438 L 187.535156 150.613281 Z M 176.523438 150.613281 " fill-opacity="1" fill-rule="nonzero"/></g><g clip-path="url(#72a932cf4c)"><path fill="#ff5757" d="M 158.933594 220.371094 L 158.933594 250.539062 L 175.523438 250.539062 L 168.445312 233.171875 L 165.835938 226.773438 L 163.226562 220.371094 Z M 158.933594 220.371094 " fill-opacity="1" fill-rule="nonzero"/></g><g clip-path="url(#b20c730150)"><path fill="#ffbd59" d="M 160.328125 226.695312 L 170.019531 250.460938 L 170.050781 250.539062 L 175.554688 250.539062 L 175.523438 250.460938 L 181.03125 250.460938 L 176.558594 239.496094 L 173.949219 233.09375 L 171.339844 226.695312 Z M 160.328125 226.695312 " fill-opacity="1" fill-rule="nonzero"/></g><g clip-path="url(#d310059ec1)"><path fill="#ff914d" d="M 168.441406 233.171875 L 175.523438 250.539062 L 186.535156 250.539062 L 182.0625 239.570312 L 179.453125 233.171875 Z M 168.441406 233.171875 " fill-opacity="1" fill-rule="nonzero"/></g><g clip-path="url(#7d483f8bc6)"><path fill="#ffde59" d="M 176.523438 239.570312 L 180.996094 250.539062 L 192.007812 250.539062 L 187.535156 239.570312 Z M 176.523438 239.570312 " fill-opacity="1" fill-rule="nonzero"/></g><g fill="#ff3131" fill-opacity="1"><g transform="translate(229.369017, 246.485204)"><g><path d="M 89.203125 -1.703125 L 46.019531 -112.78125 C 45.59375 -113.917969 43.605469 -113.917969 43.179688 -112.78125 L 0.140625 -1.703125 C -0.285156 -0.851562 0.285156 0 1.5625 0 L 21.023438 0 C 21.589844 0 22.300781 -0.285156 22.441406 -0.851562 L 44.601562 -64.203125 L 67.042969 -0.851562 C 67.183594 -0.285156 67.894531 0 68.320312 0 L 87.921875 0 C 88.917969 0 89.628906 -0.851562 89.203125 -1.703125 Z M 89.203125 -1.703125 "/></g></g></g><g clip-path="url(#1f4a811051)"><g clip-path="url(#0acda33257)"><g clip-path="url(#8ee8c42306)"><path fill="#ff5757" d="M 256.644531 230.535156 L 251.257812 245.699219 L 245.125 243.519531 L 251.476562 236.359375 L 253.851562 233.683594 Z M 256.644531 230.535156 " fill-opacity="1" fill-rule="nonzero"/></g></g></g><g clip-path="url(#5953e4e2f4)"><g clip-path="url(#7d580d8c26)"><g clip-path="url(#d78b0668f5)"><path fill="#ff914d" d="M 253.554688 237.097656 L 247.203125 244.257812 L 236.214844 240.355469 L 239.644531 236.488281 L 242.566406 233.195312 Z M 253.554688 237.097656 " fill-opacity="1" fill-rule="nonzero"/></g></g></g><g clip-path="url(#0562c15e05)"><g clip-path="url(#d664eae94d)"><g clip-path="url(#9ecae1a8e4)"><path fill="#ffde59" d="M 260.703125 219.109375 L 255.339844 234.214844 L 249.226562 232.042969 Z M 260.703125 219.109375 " fill-opacity="1" fill-rule="nonzero"/></g></g></g><g clip-path="url(#2102cc440b)"><g clip-path="url(#433723dee7)"><g clip-path="url(#a6a8706c0a)"><path fill="#ffbd59" d="M 246.421875 238.894531 L 242.992188 242.761719 L 232 238.859375 L 235.433594 234.992188 Z M 246.421875 238.894531 " fill-opacity="1" fill-rule="nonzero"/></g></g></g><g clip-path="url(#a15e73c4df)"><g clip-path="url(#661d39d90c)"><g clip-path="url(#f5a076f325)"><path fill="#ff5757" d="M 291.539062 230.652344 L 296.992188 245.792969 L 303.117188 243.585938 L 296.730469 236.453125 L 294.347656 233.789062 Z M 291.539062 230.652344 " fill-opacity="1" fill-rule="nonzero"/></g></g></g><g clip-path="url(#cc1169ab87)"><g clip-path="url(#efb1c11d2b)"><g clip-path="url(#5aab07f299)"><path fill="#ff914d" d="M 294.660156 237.199219 L 301.042969 244.332031 L 312.015625 240.378906 L 308.566406 236.527344 L 305.628906 233.246094 Z M 294.660156 237.199219 " fill-opacity="1" fill-rule="nonzero"/></g></g></g><g clip-path="url(#356705fe7e)"><g clip-path="url(#f5a2a63779)"><g clip-path="url(#3aece2fba7)"><path fill="#ffde59" d="M 287.425781 219.246094 L 292.863281 234.324219 L 298.960938 232.128906 Z M 287.425781 219.246094 " fill-opacity="1" fill-rule="nonzero"/></g></g></g><g clip-path="url(#f009f2fb35)"><g clip-path="url(#ac7ce5a1a8)"><g clip-path="url(#0d423af3ac)"><path fill="#ffbd59" d="M 301.800781 238.964844 L 305.25 242.816406 L 316.21875 238.863281 L 312.769531 235.011719 Z M 301.800781 238.964844 " fill-opacity="1" fill-rule="nonzero"/></g></g></g><g fill="#ff5757" fill-opacity="1"><g transform="translate(48.741985, 251.963009)"><g><path d="M 65.339844 -56.53125 C 65.339844 -62.496094 60.652344 -67.328125 54.6875 -67.328125 C 48.71875 -67.328125 44.03125 -62.496094 44.03125 -56.53125 C 44.03125 -50.707031 48.71875 -45.878906 54.6875 -45.878906 C 60.652344 -45.878906 65.339844 -50.707031 65.339844 -56.53125 Z M 109.371094 -56.957031 C 109.371094 -85.222656 91.046875 -113.632812 54.828125 -113.632812 C 18.039062 -113.632812 0 -85.222656 0 -56.957031 C 0 -28.550781 18.039062 0 54.828125 0 C 91.046875 0 109.371094 -28.550781 109.371094 -56.957031 Z M 88.066406 -56.53125 C 88.066406 -38.207031 76.84375 -19.886719 54.828125 -19.886719 C 32.527344 -19.886719 21.449219 -38.207031 21.449219 -56.53125 C 21.449219 -75.140625 32.527344 -93.605469 54.828125 -93.605469 C 76.84375 -93.605469 88.066406 -75.140625 88.066406 -56.53125 Z M 88.066406 -56.53125 "/></g></g></g><g clip-path="url(#c17d263f10)"><path fill="#ff914d" d="M 105.828125 199.769531 C 105.828125 200.09375 105.800781 200.410156 105.738281 200.726562 C 105.679688 201.042969 105.59375 201.351562 105.476562 201.648438 C 105.359375 201.945312 105.214844 202.230469 105.042969 202.496094 C 104.875 202.765625 104.679688 203.011719 104.464844 203.238281 C 104.25 203.46875 104.011719 203.671875 103.757812 203.851562 C 103.503906 204.027344 103.234375 204.179688 102.953125 204.304688 C 102.671875 204.425781 102.378906 204.519531 102.078125 204.582031 C 101.777344 204.644531 101.476562 204.675781 101.167969 204.675781 C 100.863281 204.675781 100.558594 204.644531 100.261719 204.582031 C 99.960938 204.519531 99.667969 204.425781 99.386719 204.304688 C 99.101562 204.179688 98.835938 204.027344 98.582031 203.851562 C 98.324219 203.671875 98.089844 203.46875 97.875 203.238281 C 97.65625 203.011719 97.464844 202.765625 97.292969 202.496094 C 97.125 202.230469 96.980469 201.945312 96.863281 201.648438 C 96.746094 201.351562 96.660156 201.042969 96.597656 200.726562 C 96.539062 200.410156 96.507812 200.09375 96.507812 199.769531 C 96.507812 199.449219 96.539062 199.128906 96.597656 198.8125 C 96.660156 198.496094 96.746094 198.191406 96.863281 197.894531 C 96.980469 197.597656 97.125 197.3125 97.292969 197.046875 C 97.464844 196.777344 97.65625 196.53125 97.875 196.300781 C 98.089844 196.074219 98.324219 195.871094 98.582031 195.691406 C 98.835938 195.511719 99.101562 195.363281 99.386719 195.238281 C 99.667969 195.117188 99.960938 195.023438 100.261719 194.960938 C 100.558594 194.898438 100.863281 194.863281 101.167969 194.863281 C 101.476562 194.863281 101.777344 194.898438 102.078125 194.960938 C 102.378906 195.023438 102.671875 195.117188 102.953125 195.238281 C 103.234375 195.363281 103.503906 195.511719 103.757812 195.691406 C 104.011719 195.871094 104.25 196.074219 104.464844 196.300781 C 104.679688 196.53125 104.875 196.777344 105.042969 197.046875 C 105.214844 197.3125 105.359375 197.597656 105.476562 197.894531 C 105.59375 198.191406 105.679688 198.496094 105.738281 198.8125 C 105.800781 199.128906 105.828125 199.449219 105.828125 199.769531 Z M 105.828125 199.769531 " fill-opacity="1" fill-rule="nonzero"/></g><g clip-path="url(#92ef15c6cc)"><path fill="#ff5757" d="M 104.824219 191.015625 C 104.824219 191.527344 104.734375 192.015625 104.546875 192.488281 C 104.363281 192.960938 104.097656 193.375 103.753906 193.738281 C 103.414062 194.097656 103.015625 194.375 102.570312 194.570312 C 102.121094 194.765625 101.652344 194.863281 101.167969 194.863281 C 100.683594 194.863281 100.21875 194.765625 99.769531 194.570312 C 99.320312 194.375 98.925781 194.097656 98.582031 193.738281 C 98.242188 193.375 97.976562 192.960938 97.789062 192.488281 C 97.605469 192.015625 97.511719 191.527344 97.511719 191.015625 C 97.511719 190.503906 97.605469 190.015625 97.789062 189.542969 C 97.976562 189.070312 98.242188 188.65625 98.582031 188.292969 C 98.925781 187.933594 99.320312 187.65625 99.769531 187.460938 C 100.21875 187.265625 100.683594 187.167969 101.167969 187.167969 C 101.652344 187.167969 102.121094 187.265625 102.570312 187.460938 C 103.015625 187.65625 103.414062 187.933594 103.753906 188.292969 C 104.097656 188.65625 104.363281 189.070312 104.546875 189.542969 C 104.734375 190.015625 104.824219 190.503906 104.824219 191.015625 Z M 104.824219 191.015625 " fill-opacity="1" fill-rule="nonzero"/></g><g clip-path="url(#6445b41657)"><path fill="#ff914d" d="M 110.132812 191.015625 C 110.132812 191.386719 110.066406 191.742188 109.929688 192.085938 C 109.796875 192.425781 109.605469 192.730469 109.355469 192.992188 C 109.105469 193.253906 108.820312 193.453125 108.496094 193.597656 C 108.171875 193.738281 107.832031 193.808594 107.480469 193.808594 C 107.128906 193.808594 106.789062 193.738281 106.464844 193.597656 C 106.140625 193.453125 105.851562 193.253906 105.601562 192.992188 C 105.355469 192.730469 105.164062 192.425781 105.027344 192.085938 C 104.894531 191.742188 104.824219 191.386719 104.824219 191.015625 C 104.824219 190.644531 104.894531 190.289062 105.027344 189.945312 C 105.164062 189.605469 105.355469 189.300781 105.601562 189.039062 C 105.851562 188.777344 106.140625 188.578125 106.464844 188.433594 C 106.789062 188.292969 107.128906 188.222656 107.480469 188.222656 C 107.832031 188.222656 108.171875 188.292969 108.496094 188.433594 C 108.820312 188.578125 109.105469 188.777344 109.355469 189.039062 C 109.605469 189.300781 109.796875 189.605469 109.929688 189.945312 C 110.066406 190.289062 110.132812 190.644531 110.132812 191.015625 Z M 110.132812 191.015625 " fill-opacity="1" fill-rule="nonzero"/></g><path fill="#ff5757" d="M 109.128906 195.546875 C 109.128906 195.777344 109.089844 196 109.003906 196.210938 C 108.921875 196.425781 108.800781 196.613281 108.648438 196.773438 C 108.492188 196.9375 108.3125 197.0625 108.109375 197.152344 C 107.910156 197.238281 107.699219 197.285156 107.480469 197.285156 C 107.261719 197.285156 107.050781 197.238281 106.847656 197.152344 C 106.644531 197.0625 106.46875 196.9375 106.3125 196.773438 C 106.15625 196.613281 106.039062 196.425781 105.957031 196.210938 C 105.871094 196 105.828125 195.777344 105.828125 195.546875 C 105.828125 195.316406 105.871094 195.09375 105.957031 194.882812 C 106.039062 194.667969 106.15625 194.480469 106.3125 194.316406 C 106.46875 194.15625 106.644531 194.03125 106.847656 193.941406 C 107.050781 193.851562 107.261719 193.808594 107.480469 193.808594 C 107.699219 193.808594 107.910156 193.851562 108.109375 193.941406 C 108.3125 194.03125 108.492188 194.15625 108.648438 194.316406 C 108.800781 194.480469 108.921875 194.667969 109.003906 194.882812 C 109.089844 195.09375 109.128906 195.316406 109.128906 195.546875 Z M 109.128906 195.546875 " fill-opacity="1" fill-rule="nonzero"/><path fill="#ff914d" d="M 105.828125 195.546875 C 105.828125 195.734375 105.765625 195.894531 105.640625 196.027344 C 105.511719 196.160156 105.359375 196.226562 105.183594 196.226562 C 105.003906 196.226562 104.851562 196.160156 104.726562 196.027344 C 104.597656 195.894531 104.535156 195.734375 104.535156 195.546875 C 104.535156 195.359375 104.597656 195.199219 104.726562 195.066406 C 104.851562 194.933594 105.003906 194.867188 105.183594 194.867188 C 105.359375 194.867188 105.511719 194.933594 105.640625 195.066406 C 105.765625 195.199219 105.828125 195.359375 105.828125 195.546875 Z M 105.828125 195.546875 " fill-opacity="1" fill-rule="nonzero"/><g fill="#ff3131" fill-opacity="1"><g transform="translate(275.391958, 246.485204)"><g><path d="M 64.488281 -91.898438 L 52.554688 -75.28125 L 25.566406 -113.207031 C 25.28125 -113.492188 24.574219 -113.632812 24.148438 -113.632812 L 1.703125 -113.632812 C 0.140625 -113.632812 -0.425781 -112.496094 0.285156 -111.5 C 14.0625 -92.183594 28.125 -72.867188 41.761719 -53.40625 L 41.761719 -1.277344 C 41.761719 -0.710938 42.328125 0 43.324219 0 L 61.929688 0 C 62.78125 0 63.492188 -0.710938 63.492188 -1.277344 L 63.492188 -53.40625 L 90.90625 -91.898438 Z M 64.488281 -91.898438 "/></g></g></g><g clip-path="url(#47f3aa360f)"><path fill="#ffde59" d="M 337.660156 218.835938 L 337.660156 225.398438 L 334.433594 233.519531 L 332.328125 238.824219 L 318.199219 238.824219 L 326.136719 218.835938 Z M 337.660156 218.835938 " fill-opacity="1" fill-rule="nonzero"/></g><g clip-path="url(#8bfed4e5ea)"><path fill="#ffbd59" d="M 337.660156 204.03125 L 337.660156 233.519531 L 325.949219 233.519531 L 331.78125 218.835938 Z M 337.660156 204.03125 " fill-opacity="1" fill-rule="nonzero"/></g><g clip-path="url(#13255205b6)"><path fill="#ff914d" d="M 337.660156 221.273438 L 337.660156 245.855469 L 327.894531 245.855469 L 330.6875 238.824219 L 332.796875 233.519531 Z M 337.660156 221.273438 " fill-opacity="1" fill-rule="nonzero"/></g><g clip-path="url(#50be8f40cc)"><path fill="#ff5757" d="M 337.660156 231.847656 L 337.660156 245.855469 L 332.097656 245.855469 L 336.996094 233.519531 Z M 337.660156 231.847656 " fill-opacity="1" fill-rule="nonzero"/></g><g clip-path="url(#f660c83b4b)"><path fill="#ff3131" d="M 344.566406 137.089844 L 341.136719 137.089844 L 341.136719 135.074219 L 350.449219 135.074219 L 350.449219 137.089844 L 347.015625 137.089844 L 347.015625 147.726562 L 344.566406 147.726562 L 344.566406 137.089844 " fill-opacity="1" fill-rule="nonzero"/></g><g clip-path="url(#c4c6df6211)"><path fill="#ff3131" d="M 362.121094 137.476562 L 359.257812 147.726562 L 357.132812 147.726562 L 354.320312 137.710938 L 354.320312 147.726562 L 352.078125 147.726562 L 352.078125 135.074219 L 355.722656 135.074219 C 355.722656 135.074219 358.214844 144.511719 358.195312 144.511719 L 358.214844 144.511719 L 360.957031 135.074219 L 364.46875 135.074219 L 364.46875 147.726562 L 362.121094 147.726562 L 362.121094 137.476562 " fill-opacity="1" fill-rule="nonzero"/></g><g clip-path="url(#8f4e937da9)"><path fill="#ffde59" d="M 24.363281 147.300781 L 19.785156 147.300781 L 14.125 144.882812 L 10.421875 143.300781 L 10.421875 132.703125 L 24.363281 138.660156 Z M 24.363281 147.300781 " fill-opacity="1" fill-rule="nonzero"/></g><g clip-path="url(#a56f0ea248)"><path fill="#ffbd59" d="M 34.6875 147.300781 L 14.125 147.300781 L 14.125 138.515625 L 24.363281 142.890625 Z M 34.6875 147.300781 " fill-opacity="1" fill-rule="nonzero"/></g><g clip-path="url(#d124e55194)"><path fill="#ff914d" d="M 22.664062 147.300781 L 5.519531 147.300781 L 5.519531 139.976562 L 10.421875 142.074219 L 14.125 143.652344 Z M 22.664062 147.300781 " fill-opacity="1" fill-rule="nonzero"/></g><g clip-path="url(#aab86bdef1)"><path fill="#ff5757" d="M 15.289062 147.300781 L 5.519531 147.300781 L 5.519531 143.128906 L 14.125 146.804688 Z M 15.289062 147.300781 " fill-opacity="1" fill-rule="nonzero"/></g></svg>