<?xml version="1.0" encoding="iso-8859-1"?>
<!-- Uploaded to: SVG Repo, www.svgrepo.com, Generator: SVG Repo Mixer Tools -->
<svg height="800px" width="800px" version="1.1" id="Layer_1" xmlns="http://www.w3.org/2000/svg" xmlns:xlink="http://www.w3.org/1999/xlink" 
	 viewBox="0 0 389.34 389.34" xml:space="preserve">
<path style="fill:#1EA6C6;" d="M347.415,330.3c0,0.04,0,0.08,0,0.13c-40.37,36.61-93.96,58.91-152.74,58.91
	c-58.79,0-112.38-22.3-152.75-58.91c0-0.05,0-0.09,0-0.13c0-60.89,35.63-113.45,87.17-137.98c19.37,19.32,42.05,29.73,65.58,29.73
	c23.54,0,46.21-10.41,65.59-29.73C311.805,216.85,347.415,269.41,347.415,330.3z"/>
<path style="fill:#FCD09F;" d="M194.675,0c46.66,0,84.49,37.82,84.49,84.48c0,46.67-37.83,110.49-84.49,110.49
	s-84.49-63.82-84.49-110.49C110.185,37.82,148.015,0,194.675,0z"/>
</svg>